<svg xmlns="http://www.w3.org/2000/svg" width="475" height="152.891" viewBox="0 0 475 152.891">
  <g id="Group_7017" data-name="Group 7017" transform="translate(-2218.12 -350.849)">
    <g id="Group_6812" data-name="Group 6812" transform="translate(2218.12 350.849)">
      <g id="Group_6811" data-name="Group 6811">
        <g id="Group_6809" data-name="Group 6809">
          <g id="Group_6807" data-name="Group 6807">
            <path id="Path_3862" data-name="Path 3862" d="M2288.441,350.849H2248l-7.98,8.319h56.405Z" transform="translate(-2218.12 -350.849)" fill="#3f8fcd"/>
            <path id="Path_3863" data-name="Path 3863" d="M2246.756,378.076H2226.1l-7.979,8.318h36.616Z" transform="translate(-2218.12 -350.352)" fill="#3f8fcd"/>
            <path id="Path_3864" data-name="Path 3864" d="M2281.7,386.394h36.615l-7.979-8.318h-20.656Z" transform="translate(-2218.12 -350.352)" fill="#3f8fcd"/>
            <path id="Path_3865" data-name="Path 3865" d="M2276.3,388.707l12.416-12.944h3.117V361.48H2244.6v14.283h3.171l12.416,12.944h-34.552v80.9H2310.8v-80.9ZM2262.9,373a5.325,5.325,0,0,1,9.379-3.472l.15.182a5.414,5.414,0,0,1,.386.557,4.908,4.908,0,0,1,.256.473c.052.109.1.209.138.313a5.07,5.07,0,0,1,.245.79l.031.161-.13.058v0l.137-.026a5.314,5.314,0,0,1,.094.96v7.978H2262.9Zm-13.846,89.568-1.213.006h-7.2V451.241l8.416-.006Zm0-17.8h-8.416V433.433h8.416Zm0-17.809h-8.416V415.624h8.416Zm0-17.808h-8.416V397.816h8.416Zm15.336,53.419-1.212.006h-7.2V451.241l8.415-.006Zm0-17.8h-8.415V433.433h8.415Zm0-17.809h-8.415V415.624h8.415Zm0-17.808h-8.415V397.816h8.415Zm15.337,53.425h-8.415V451.241l8.415-.006Zm0-17.808h-8.415V433.433h8.415Zm0-17.809h-8.415V415.624h8.415Zm0-17.808h-8.415V397.816h8.415Zm15.337,53.425h-8.415V451.241l8.415-.006Zm0-17.808h-8.415V433.433h8.415Zm0-17.809h-8.415V415.624h8.415Zm0-17.808h-8.415V397.816h8.415Z" transform="translate(-2218.12 -350.849)" fill="#9bd3e7"/>
            <path id="Path_3866" data-name="Path 3866" d="M2401.253,454.119a6.008,6.008,0,0,0-9.846,0,6.01,6.01,0,0,0-9.848,0,6.008,6.008,0,0,0-9.846,0,6.008,6.008,0,0,0-9.846,0,6.008,6.008,0,0,0-9.846,0,6.009,6.009,0,0,0-9.847,0,6.008,6.008,0,0,0-9.846,0,6.008,6.008,0,0,0-9.846,0,5.038,5.038,0,0,0-8.748-.1v36.915a12.485,12.485,0,0,1,8.357-.928,20.868,20.868,0,0,1,2.744-3.061h-.172V461.766h35.022V486.94h-6.774a20.765,20.765,0,0,1,6.3,10.929h11.4v-36.1h21.894v36.1h17.91V454.092a5.5,5.5,0,0,0-9.164.027Z" transform="translate(-2218.12 -348.26)" fill="#f9d564"/>
            <path id="Path_3867" data-name="Path 3867" d="M2372.813,463.966v33.9h17.494v-33.9Z" transform="translate(-2218.12 -348.26)" fill="#ce4927"/>
            <rect id="Rectangle_1354" data-name="Rectangle 1354" width="17.494" height="0.212" transform="translate(154.693 149.609)" fill="#fff"/>
            <path id="Path_3868" data-name="Path 3868" d="M2341.074,481.575V463.966h-14.211V484.74h.828a20.758,20.758,0,0,1,11.2-3.281A20.983,20.983,0,0,1,2341.074,481.575Z" transform="translate(-2218.12 -348.26)" fill="#9bd3e7"/>
            <path id="Path_3869" data-name="Path 3869" d="M2350.058,484.74h7.427V463.966h-14.211v17.967A20.658,20.658,0,0,1,2350.058,484.74Z" transform="translate(-2218.12 -348.26)" fill="#9bd3e7"/>
            <path id="Path_3870" data-name="Path 3870" d="M2313.089,500.394h-4.1c-.046.25-.09.5-.117.757h48.584c-.022-.365-.074-.722-.117-1.082h-44.247Z" transform="translate(-2218.12 -348.26)" fill="#598961"/>
            <path id="Path_3871" data-name="Path 3871" d="M2310.889,496.034a10.355,10.355,0,0,0-1.245,2.16h1.245Z" transform="translate(-2218.12 -348.26)" fill="#598961"/>
            <path id="Path_3872" data-name="Path 3872" d="M2313.089,500.069h-1.555v-4.818c-.228.249-.442.512-.645.783v2.16h-1.245a10.251,10.251,0,0,0-.658,2.2h4.1Z" transform="translate(-2218.12 -348.26)" fill="#598961"/>
            <path id="Path_3873" data-name="Path 3873" d="M2349.4,486.94h-21.05a18.659,18.659,0,0,0-4.889,4.938l-.454.675-.779-.237a10.37,10.37,0,0,0-8.493,1.1v4.448h43.218A18.632,18.632,0,0,0,2349.4,486.94Zm-2,6.807a11.942,11.942,0,0,0-8.506-3.524v-2.2a14.13,14.13,0,0,1,10.062,4.168Z" transform="translate(-2218.12 -348.26)" fill="#598961"/>
            <path id="Path_3874" data-name="Path 3874" d="M2313.089,500.069h44.247c-.043-.37-.091-.737-.156-1.1h-44.091Z" transform="translate(-2218.12 -348.26)" fill="#598961"/>
            <path id="Path_3875" data-name="Path 3875" d="M2312.635,494.219a10.557,10.557,0,0,0-1.1,1.032v4.818h1.555v-1.1h-.454Z" transform="translate(-2218.12 -348.26)" fill="#598961"/>
            <path id="Path_3876" data-name="Path 3876" d="M2313.734,493.421c-.222.138-.435.288-.645.442v5.106h44.091c-.066-.37-.14-.738-.228-1.1h-43.218Z" transform="translate(-2218.12 -348.26)" fill="#598961"/>
            <path id="Path_3877" data-name="Path 3877" d="M2312.635,498.969h.454v-5.106c-.156.114-.305.234-.454.356Z" transform="translate(-2218.12 -348.26)" fill="#598961"/>
            <path id="Path_3878" data-name="Path 3878" d="M2341.074,483.8a18.071,18.071,0,0,0-8.411.94h8.411Z" transform="translate(-2218.12 -348.26)" fill="#598961"/>
            <path id="Path_3879" data-name="Path 3879" d="M2343.274,484.74h1.809a18.67,18.67,0,0,0-1.809-.538Z" transform="translate(-2218.12 -348.26)" fill="#598961"/>
            <path id="Path_3880" data-name="Path 3880" d="M2341.074,483.8v.94h2.2V484.2A18.346,18.346,0,0,0,2341.074,483.8Z" transform="translate(-2218.12 -348.26)" fill="#598961"/>
            <path id="Path_3881" data-name="Path 3881" d="M2330.15,485.841a18.492,18.492,0,0,0-1.8,1.1h21.05a18.555,18.555,0,0,0-1.789-1.1Z" transform="translate(-2218.12 -348.26)" fill="#598961"/>
            <path id="Path_3882" data-name="Path 3882" d="M2343.274,484.74v1.1h-2.2v-1.1h-8.411a18.548,18.548,0,0,0-2.513,1.1h17.46a18.531,18.531,0,0,0-2.527-1.1Z" transform="translate(-2218.12 -348.26)" fill="#598961"/>
            <rect id="Rectangle_1355" data-name="Rectangle 1355" width="2.2" height="1.1" transform="translate(122.954 136.481)" fill="#598961"/>
          </g>
          <path id="Path_3883" data-name="Path 3883" d="M2407.276,427.862V448.1a5.991,5.991,0,0,1-.059.8,3.829,3.829,0,0,0,3.737,3.027,3.755,3.755,0,0,0,.564-.057,3.819,3.819,0,0,0,3.26-3.766V427.862Z" transform="translate(-2218.12 -349.269)" fill="#fccc8b"/>
          <path id="Path_3884" data-name="Path 3884" d="M2318.658,444.814V448.1a3.823,3.823,0,0,0,7.647,0V427.862h-7.647Z" transform="translate(-2218.12 -349.269)" fill="#f59d15"/>
          <path id="Path_3885" data-name="Path 3885" d="M2328.5,444.814V448.1a3.823,3.823,0,1,0,7.646,0V427.862H2328.5Z" transform="translate(-2218.12 -349.269)" fill="#fccc8b"/>
          <path id="Path_3886" data-name="Path 3886" d="M2338.351,444.814V448.1a3.823,3.823,0,1,0,7.646,0V427.862h-7.646Z" transform="translate(-2218.12 -349.269)" fill="#f59d15"/>
          <path id="Path_3887" data-name="Path 3887" d="M2348.2,444.814V448.1a3.823,3.823,0,0,0,7.647,0V427.862H2348.2Z" transform="translate(-2218.12 -349.269)" fill="#fccc8b"/>
          <path id="Path_3888" data-name="Path 3888" d="M2358.044,444.814V448.1a3.823,3.823,0,1,0,7.646,0V427.862h-7.646Z" transform="translate(-2218.12 -349.269)" fill="#f59d15"/>
          <path id="Path_3889" data-name="Path 3889" d="M2367.89,444.814V448.1a3.823,3.823,0,1,0,7.646,0V427.862h-7.646Z" transform="translate(-2218.12 -349.269)" fill="#fccc8b"/>
          <path id="Path_3890" data-name="Path 3890" d="M2377.736,444.814V448.1a3.824,3.824,0,0,0,7.648,0V427.862h-7.648Z" transform="translate(-2218.12 -349.269)" fill="#f59d15"/>
          <path id="Path_3891" data-name="Path 3891" d="M2387.584,444.814V448.1a3.823,3.823,0,1,0,7.646,0V427.862h-7.646Z" transform="translate(-2218.12 -349.269)" fill="#fccc8b"/>
          <path id="Path_3892" data-name="Path 3892" d="M2397.43,444.814V448.1a3.822,3.822,0,0,0,7.56.8,5.991,5.991,0,0,1-.059-.8h.145V427.862h-7.646Z" transform="translate(-2218.12 -349.269)" fill="#f59d15"/>
          <path id="Path_3893" data-name="Path 3893" d="M2313.734,444.814v6.944a3.831,3.831,0,0,0,2.724-3.662V427.862h-2.724Z" transform="translate(-2218.12 -349.271)" fill="#fccc8b"/>
          <g id="Group_6808" data-name="Group 6808" transform="translate(7.374 124.207)">
            <path id="Path_3894" data-name="Path 3894" d="M2225.494,472.467v25.727h17.093v-6.588a6.338,6.338,0,0,1,6.33-6.331,6.31,6.31,0,0,1,3.96,1.418c.119.1.205.166.288.24.139.126.281.269.418.419.112.122.221.257.328.394.146.183.229.292.305.409a6.353,6.353,0,0,1,.475.874c.049.11.088.212.125.314a6.261,6.261,0,0,1,.245.784c.04.165.062.265.08.368a6.11,6.11,0,0,1,.106,1.111v6.588h2.231V486.046a10.037,10.037,0,0,1,9.97-10.08,9.862,9.862,0,0,1,5.209,1.5l.135.083c.2.129.376.253.547.381l.178.134c.182.143.338.271.488.4l.164.149c.188.176.325.308.458.448.047.047.108.115.168.184.19.213.3.342.413.477l.134.179c.233.31.411.574.579.846.115.187.185.3.249.418.048.089.1.19.148.29.117.236.187.38.252.529l.124.3c.1.243.157.411.213.581.036.11.076.236.113.365.053.189.1.371.14.553.025.1.053.228.078.358.038.2.069.407.095.619l.035.269c.035.372.052.688.052,1.009v12.148h2.429v-6.588a6.338,6.338,0,0,1,6.332-6.331,6.264,6.264,0,0,1,2.56.555l.118.054a6.549,6.549,0,0,1,1.281.809c.112.09.2.161.285.239.142.127.285.27.422.42.112.122.22.257.328.394a4.974,4.974,0,0,1,.312.423,6.419,6.419,0,0,1,.462.847c.055.123.094.225.13.327a6.294,6.294,0,0,1,.246.786c.035.143.055.235.073.329l0,.011a6.243,6.243,0,0,1,.111,1.137v6.588h14.784a12.6,12.6,0,0,1,3.594-5.372V472.467Z" transform="translate(-2225.494 -472.467)" fill="#9bd3e7"/>
          </g>
          <path id="Path_3895" data-name="Path 3895" d="M2253.047,491.606a3.928,3.928,0,0,0-.073-.725c-.012-.078-.028-.137-.051-.235v0a4.213,4.213,0,0,0-.169-.534c-.028-.075-.047-.129-.071-.184a4.085,4.085,0,0,0-.308-.566c-.045-.068-.1-.133-.189-.249-.076-.1-.146-.187-.22-.268-.092-.1-.184-.192-.281-.279-.057-.053-.11-.094-.185-.154a4.106,4.106,0,0,0-6.712,3.2v6.5h8.26Z" transform="translate(-2218.12 -348.26)" fill="#3f8fcd"/>
          <path id="Path_3896" data-name="Path 3896" d="M2275.22,486.046c0-.254-.015-.505-.038-.766l-.031-.233c-.021-.163-.042-.325-.073-.481-.02-.1-.041-.2-.061-.279-.035-.157-.071-.3-.112-.446-.027-.093-.056-.187-.086-.276-.048-.145-.1-.276-.167-.456l-.108-.267c-.043-.1-.1-.215-.192-.4l-.109-.215c-.052-.093-.106-.18-.2-.326a8.17,8.17,0,0,0-.467-.681l-.115-.155c-.063-.078-.156-.18-.3-.341l-.121-.135c-.115-.119-.224-.225-.369-.36l-.143-.131c-.107-.094-.228-.193-.359-.3l-.155-.117c-.125-.094-.262-.19-.4-.281l-.118-.073a7.665,7.665,0,0,0-4.05-1.168,7.834,7.834,0,0,0-7.77,7.88v12.235h15.542Z" transform="translate(-2218.12 -348.26)" fill="#3f8fcd"/>
          <path id="Path_3897" data-name="Path 3897" d="M2290.311,491.606a4.169,4.169,0,0,0-.075-.741c-.012-.062-.026-.122-.05-.219a4.062,4.062,0,0,0-.169-.538c-.028-.076-.048-.13-.073-.188a4.148,4.148,0,0,0-.3-.547,3.085,3.085,0,0,0-.2-.263c-.076-.1-.146-.188-.22-.269-.091-.1-.185-.192-.281-.279-.059-.054-.115-.1-.186-.155a4.176,4.176,0,0,0-.781-.5l-.1-.051a4.125,4.125,0,0,0-5.826,3.754v6.5h8.262Z" transform="translate(-2218.12 -348.26)" fill="#3f8fcd"/>
        </g>
        <g id="Group_6810" data-name="Group 6810" transform="translate(303.511 47.889)">
          <path id="Path_3898" data-name="Path 3898" d="M2530.674,450.443h11.74v39.363h7.339V450.443h11.74v39.363h7.339V450.443h11.74v39.363h7.34V450.443h11.739v39.363h7.34V450.443h9.679V443.1H2513.588v7.34h9.746v39.363h7.339Z" transform="translate(-2513.588 -396.149)" fill="#afbc9f"/>
          <rect id="Rectangle_1356" data-name="Rectangle 1356" width="0.14" height="2.232" transform="translate(102.942 96.957)" fill="#f9d564"/>
          <path id="Path_3899" data-name="Path 3899" d="M2616.531,495.338v-2.232H2513.588v7.34H2616.67v-5.107Z" transform="translate(-2513.588 -396.149)" fill="#f9d564"/>
          <path id="Path_3900" data-name="Path 3900" d="M2574.7,399.3,2520.761,439.8h95.909v-8.99Zm0,32.544a8.877,8.877,0,1,1,8.876-8.876A8.887,8.887,0,0,1,2574.7,431.842Z" transform="translate(-2513.588 -396.149)" fill="#f9d564"/>
          <path id="Path_3901" data-name="Path 3901" d="M2574.7,416.813a6.153,6.153,0,1,0,6.152,6.153A6.16,6.16,0,0,0,2574.7,416.813Z" transform="translate(-2513.588 -396.149)" fill="#f59d15"/>
          <path id="Path_3902" data-name="Path 3902" d="M2685.077,396.149h-74.2v9.927h74.2Z" transform="translate(-2513.588 -396.149)" fill="#3f8fcd"/>
          <path id="Path_3903" data-name="Path 3903" d="M2619.97,409.377v91.069h19.383V482.46H2657.1v17.986h18.886V409.377Zm22.261,60.493h-12.747V457.483h12.747Zm0-19.4h-12.747V438.079h12.747Zm0-19.4h-12.747V418.675h12.747Zm21.829,38.808h-12.745V457.483h12.745Zm0-19.4h-12.745V438.079h12.745Zm0-19.4h-12.745V418.675h12.745Z" transform="translate(-2513.588 -396.149)" fill="#9bd3e7"/>
        </g>
      </g>
    </g>
    <g id="Group_6814" data-name="Group 6814" transform="translate(2395.663 353.235)">
      <ellipse id="Ellipse_7" data-name="Ellipse 7" cx="72.765" cy="74.059" rx="72.765" ry="74.059" fill="#fff" stroke="#fff" stroke-miterlimit="10" stroke-width="2"/>
      <ellipse id="Ellipse_8" data-name="Ellipse 8" cx="63.063" cy="64.357" rx="63.063" ry="64.357" transform="translate(9.702 9.702)" fill="#ce4927"/>
      <g id="Group_6813" data-name="Group 6813" transform="translate(33.805 36.982)">
        <path id="Path_3904" data-name="Path 3904" d="M2438.408,403.508h15.687v24.134a3.605,3.605,0,0,0-3.621,3.621v15.686h-25.34a54.187,54.187,0,0,1,1.659-14.027,66.838,66.838,0,0,1,3.771-9.352,55.2,55.2,0,0,0,2.865-7.392,29.371,29.371,0,0,0,1.358-9.049,3.605,3.605,0,0,1,3.621-3.621Zm-13.274,49.475V450.57h25.34v2.413a3.606,3.606,0,0,1-3.62,3.62h-18.1a3.605,3.605,0,0,1-3.62-3.62Zm28.961-53.1v-7.24a3.605,3.605,0,0,0-3.621-3.62h-7.239a3.605,3.605,0,0,0-3.621,3.62v7.24Zm3.62,3.62h12.067v24.134h-12.067Zm30.167-10.86v7.24H2473.4v-7.24a3.605,3.605,0,0,1,3.62-3.62h7.24a3.606,3.606,0,0,1,3.62,3.62Zm-10.86,54.3V431.263a3.605,3.605,0,0,0-3.62-3.621V403.508h15.687a3.605,3.605,0,0,1,3.62,3.621,29.408,29.408,0,0,0,1.358,9.049,55.107,55.107,0,0,0,2.866,7.392,67.112,67.112,0,0,1,3.771,9.352,54.23,54.23,0,0,1,1.659,14.027Zm0,6.034V450.57h25.341v2.413a3.606,3.606,0,0,1-3.621,3.62h-18.1a3.605,3.605,0,0,1-3.621-3.62Z" transform="translate(-2425.134 -389.028)" fill="#fff"/>
      </g>
    </g>
  </g>
</svg>
